<?xml version="1.0" encoding="utf-8"?>
<!-- Generator: Adobe Illustrator 28.3.0, SVG Export Plug-In . SVG Version: 6.00 Build 0)  -->
<svg version="1.1" id="Calque_1" xmlns="http://www.w3.org/2000/svg" xmlns:xlink="http://www.w3.org/1999/xlink" x="0px" y="0px"
	 viewBox="0 0 64 64" style="enable-background:new 0 0 64 64;" xml:space="preserve">
<style type="text/css">
	.st0{fill:#2C2C2C;}
</style>
<g>
	<path class="st0" d="M52.9,28.8c-0.6-0.1-1.5-0.2-2.6-0.3c-1.1,0-2.2,0-3.3,0s-2,0.1-2.6,0.3c-0.6,0.2-1.1,0.6-1.4,1.1
		c-0.3,0.5-0.5,1.2-0.5,2.1c0,0.9,0.2,1.6,0.5,2.1s0.8,0.9,1.4,1.1c0.6,0.1,1.5,0.2,2.6,0.3c1.1,0,2.2,0,3.3,0c1.1,0,2-0.1,2.6-0.3
		c0.6-0.2,1.1-0.6,1.4-1.1s0.5-1.2,0.5-2.1c0-0.9-0.2-1.6-0.5-2.1C54,29.4,53.5,29,52.9,28.8z"/>
	<path class="st0" d="M32,0C14.3,0,0,14.3,0,32s14.3,32,32,32s32-14.3,32-32S49.7,0,32,0z M39.4,15.3h11.2v1.3h-9.8V19h7.5v1.3h-7.5
		v3h9.8v1.3H39.4V15.3z M30.4,15.3h1.5v7.9H38v1.3h-7.6V15.3z M20.4,15.3h8.5v1.3h-7V19h5.5v1.3h-5.5v3h7v1.3h-8.5V15.3z M13.1,15.3
		h6v1.3h-2.2v7.9h-1.5v-7.9h-2.3V15.3z M8.4,35.7c-0.5-0.4-0.7-1-0.7-1.7v-0.9h1.5V34c0,0.3,0.1,0.6,0.4,0.8
		c0.3,0.2,0.7,0.4,1.2,0.4c0.7,0.1,1.6,0.1,2.8,0.2c1.2,0,2.3,0,3.5,0c1.2,0,2.1-0.1,2.7-0.2c0.6-0.1,1-0.2,1.3-0.4
		c0.3-0.2,0.4-0.5,0.4-0.9c0-0.4-0.1-0.7-0.4-0.9c-0.2-0.2-0.6-0.4-1-0.4c-0.8,0-1.6,0-2.5-0.1c-0.9,0-1.7,0-2.6-0.1
		c-0.9,0-1.7-0.1-2.6-0.1c-0.8,0-1.6-0.1-2.4-0.1c-0.8-0.1-1.3-0.3-1.8-0.7c-0.4-0.4-0.6-0.9-0.6-1.6c0-0.7,0.2-1.2,0.7-1.7
		c0.5-0.4,1.1-0.7,1.9-0.9c0.6-0.1,1.6-0.2,3-0.2s2.7,0,4,0c1.3,0,2.3,0.1,2.9,0.2c0.8,0.2,1.4,0.4,1.9,0.9c0.5,0.4,0.7,1,0.7,1.7
		l0,0.8h-1.5V30c0-0.3-0.1-0.6-0.4-0.9c-0.3-0.2-0.6-0.4-1.1-0.4c-0.6-0.1-1.5-0.1-2.7-0.2c-1.2,0-2.5,0-3.7,0
		c-1.2,0-2.1,0.1-2.7,0.2c-0.5,0.1-0.8,0.2-1,0.5c-0.2,0.2-0.4,0.5-0.4,0.8c0,0.3,0.1,0.6,0.3,0.8c0.2,0.2,0.5,0.3,0.9,0.3
		c0.8,0,1.7,0.1,2.7,0.1s1.9,0.1,2.9,0.1c0.8,0,1.6,0,2.3,0.1c0.7,0,1.3,0,1.9,0.1c1,0.1,1.7,0.4,2.2,0.8c0.5,0.4,0.7,1,0.7,1.7
		c0,0.7-0.2,1.3-0.7,1.8s-1.2,0.7-2.1,0.8c-0.7,0.1-1.7,0.1-3,0.2c-1.3,0-2.5,0-3.8,0c-1.3,0-2.2-0.1-3-0.2
		C9.6,36.4,8.9,36.1,8.4,35.7z M29.8,43.9c-0.3,0.4-0.6,0.8-1.1,1c-0.5,0.2-1.1,0.4-1.8,0.4H14.7v3.4h-1.5v-9.2h13.7
		c1.1,0,1.9,0.2,2.5,0.7c0.6,0.5,0.8,1.2,0.8,2.2C30.2,42.9,30,43.4,29.8,43.9z M27.5,36.5c-1-0.2-1.8-0.7-2.4-1.4
		c-0.6-0.7-0.8-1.7-0.8-3.1c0-1.4,0.3-2.4,0.8-3.1c0.6-0.7,1.4-1.2,2.4-1.4c0.7-0.1,1.6-0.2,2.8-0.3c1.2,0,2.4,0,3.6,0
		c1.2,0,2.1,0.1,2.8,0.3c0.9,0.2,1.6,0.6,2.2,1.1c0.5,0.5,0.8,1.3,0.9,2.3h-1.5c-0.1-0.6-0.3-1-0.6-1.4c-0.3-0.3-0.7-0.6-1.3-0.7
		c-0.6-0.1-1.5-0.2-2.6-0.3c-1.1,0-2.3,0-3.4,0c-1.1,0-2,0.1-2.6,0.3c-0.6,0.2-1.1,0.5-1.5,1c-0.3,0.5-0.5,1.2-0.5,2.1
		c0,0.9,0.2,1.6,0.5,2.1c0.3,0.5,0.8,0.9,1.5,1c0.6,0.1,1.5,0.2,2.6,0.3c1.1,0,2.3,0,3.4,0c1.1,0,2-0.1,2.6-0.3
		c0.5-0.2,1-0.4,1.3-0.7s0.5-0.8,0.6-1.4h1.5c-0.1,1-0.4,1.8-0.9,2.3c-0.5,0.5-1.2,0.9-2.2,1.1c-0.6,0.1-1.6,0.2-2.8,0.2
		c-1.2,0-2.4,0-3.6,0C29.1,36.7,28.1,36.6,27.5,36.5z M51.2,40.7H33.3v2.5h13.4v1.3H33.3v2.9h17.9v1.3H31.8v-9.2h19.4V40.7z
		 M53.1,36.5c-0.6,0.1-1.5,0.2-2.7,0.2c-1.2,0-2.3,0-3.5,0c-1.2,0-2.1-0.1-2.7-0.2c-1-0.2-1.8-0.7-2.4-1.4c-0.6-0.7-0.8-1.7-0.8-3.1
		c0-1.4,0.3-2.4,0.8-3.1c0.6-0.7,1.4-1.2,2.4-1.4c0.6-0.1,1.5-0.2,2.7-0.3c1.2,0,2.3,0,3.5,0c1.2,0,2.1,0.1,2.7,0.3
		c1,0.2,1.8,0.7,2.4,1.4c0.6,0.7,0.8,1.7,0.8,3.1c0,1.4-0.3,2.4-0.8,3.1C54.9,35.8,54.1,36.3,53.1,36.5z"/>
	<path class="st0" d="M26.7,40.7H14.7V44h12.1c0.6,0,1.1-0.2,1.4-0.5c0.3-0.3,0.5-0.7,0.5-1.2c0-0.5-0.2-0.9-0.5-1.2
		C27.9,40.9,27.4,40.7,26.7,40.7z"/>
</g>
</svg>
